<svg width="227" height="268" viewBox="0 0 227 268" fill="none" xmlns="http://www.w3.org/2000/svg">
<path d="M226.437 134.14C226.437 153.451 226.365 172.834 226.51 192.144C226.582 196.9 224.563 200.07 220.742 202.52C192.05 220.318 163.43 238.115 134.738 255.913C129.115 259.371 123.492 262.83 117.941 266.433C114.769 268.522 111.813 268.522 108.569 266.433C74.0373 244.888 39.5058 223.416 4.97427 201.872C1.65809 199.782 0 197.044 0 192.937C0.0720909 153.667 0.0720909 114.397 0 75.1272C0 70.4436 2.379 67.5614 6.05563 65.2556C24.0063 54.0871 41.9569 42.9186 59.9075 31.7501C75.9838 21.7345 92.1322 11.7189 108.208 1.63121C111.813 -0.602495 114.913 -0.53044 118.517 1.77532C151.751 22.6712 185.057 43.4951 218.507 64.1028C224.275 67.6335 226.798 71.6685 226.654 78.6579C226.149 97.1759 226.437 115.622 226.437 134.14ZM219.877 133.636C219.805 133.636 219.805 133.636 219.733 133.636C219.733 114.901 219.661 96.1672 219.805 77.4329C219.805 74.0463 218.796 72.0288 215.912 70.2274C182.75 49.6918 149.589 29.0841 116.571 8.40436C114.192 6.89121 112.534 6.89121 110.155 8.40436C76.9931 29.0841 43.9034 49.7639 10.7415 70.2995C7.71373 72.1729 6.48818 74.1184 6.56027 77.7211C6.63236 115.334 6.63236 152.946 6.48818 190.487C6.48818 193.946 7.64163 195.891 10.5253 197.692C43.1824 217.94 75.8396 238.187 108.353 258.651C112.101 260.957 114.697 260.74 118.301 258.435C151.03 237.827 183.832 217.436 216.705 197.116C219.084 195.603 219.805 193.946 219.805 191.28C219.805 172.041 219.877 152.802 219.877 133.636Z" fill="white"/>
<path d="M112.653 201C95.3678 166.427 78.4399 132.647 61.2979 98.3619C95.7249 98.3619 129.438 98.3619 163.936 98.3619C146.794 132.575 129.938 166.427 112.653 201ZM112.653 186.235C126.366 158.72 139.723 132.071 153.222 105.132C125.866 105.132 99.2247 105.132 72.0831 105.132C85.5825 132.215 98.939 158.792 112.653 186.235Z" fill="white"/>
<path d="M11.4043 192.176C27.0446 161.284 42.4697 130.896 58.2535 99.7874C75.5439 134.289 92.4756 168.069 109.766 202.426C76.7635 199.033 44.4785 195.641 11.4043 192.176ZM21.6638 186.618C47.3483 189.289 72.5306 191.888 98.2869 194.63C84.7272 167.563 71.5979 141.362 58.1817 114.512C45.8417 138.836 33.8603 162.511 21.6638 186.618Z" fill="white"/>
<path d="M215.255 192.111C181.677 195.573 148.9 198.964 115.468 202.426C132.949 168.093 150.138 134.337 167.765 99.7874C183.644 130.802 199.376 161.241 215.255 192.111ZM126.976 194.564C153.198 191.823 178.763 189.154 204.766 186.485C192.384 162.322 180.22 138.737 167.692 114.429C153.999 141.477 140.597 167.732 126.976 194.564Z" fill="white"/>
<path d="M163.936 94.0848C129.555 94.0848 95.7509 94.0848 61.2979 94.0848C78.4523 66.8797 95.3905 40.1065 112.617 12.8295C129.844 40.1785 146.782 66.9517 163.936 94.0848ZM151.899 87.5354C138.637 66.5918 125.735 46.1521 112.545 25.2805C99.2827 46.296 86.3808 66.7358 73.2627 87.5354C99.7151 87.5354 125.375 87.5354 151.899 87.5354Z" fill="white"/>
<path d="M215.255 76.9788C215.255 113.406 215.255 149.182 215.255 184.957C215.038 185.102 214.821 185.174 214.605 185.319C199.712 155.989 184.747 126.659 169.638 96.8943C184.892 90.3041 199.929 83.7138 215.255 76.9788ZM178.819 100.226C188.724 119.634 198.411 138.681 208.098 157.727C208.315 157.655 208.532 157.51 208.749 157.437C208.749 134.263 208.749 111.089 208.749 87.19C198.628 91.6076 188.868 95.8804 178.819 100.226Z" fill="white"/>
<path d="M9.97852 76.9788C25.3534 83.6503 40.2932 90.2494 55.5955 96.8484C40.5107 126.508 25.4985 155.877 10.5587 185.319C10.4137 185.319 10.1961 185.247 10.051 185.247C9.97852 149.351 9.97852 113.527 9.97852 76.9788ZM16.3605 157.69C16.5781 157.763 16.7957 157.835 16.9407 157.908C26.7313 138.763 36.4494 119.619 46.3851 100.184C36.2319 95.7607 26.5138 91.5547 16.3605 87.1311C16.3605 111.134 16.3605 134.412 16.3605 157.69Z" fill="white"/>
<path d="M18.748 196.724C49.5387 199.887 80.3293 203.05 111.192 206.213C111.192 222.532 111.192 238.42 111.192 255.17C79.9696 235.76 49.2509 216.637 18.5322 197.514C18.6042 197.299 18.6761 197.011 18.748 196.724ZM104.573 243.237C104.573 232.525 104.573 222.532 104.573 212.18C85.1493 210.167 65.9411 208.226 46.733 206.285C46.661 206.572 46.5171 206.788 46.4452 207.076C65.6534 219.081 84.9335 231.015 104.573 243.237Z" fill="white"/>
<path d="M114.042 255.17C114.042 238.492 114.042 222.676 114.042 206.357C145.428 203.122 176.595 199.959 207.835 196.724C207.908 196.939 208.054 197.155 208.127 197.442C177.033 216.493 145.866 235.616 114.042 255.17ZM120.757 243.237C140.83 230.943 160.391 218.938 179.953 206.932C179.88 206.716 179.734 206.501 179.661 206.285C160.099 208.298 140.538 210.311 120.83 212.324C120.757 222.46 120.757 232.453 120.757 243.237Z" fill="white"/>
<path d="M105.49 16.3283C89.9274 41.0732 74.3646 65.89 58.73 90.7069C57.8694 92.0736 57.224 93.2245 55.1441 92.3613C41.3026 86.1751 27.461 80.1327 13.5477 74.0184C13.3326 73.9465 13.2609 73.7307 12.8306 73.2991C43.6693 54.0211 74.3646 34.815 105.06 15.6809C105.203 15.8967 105.347 16.1125 105.49 16.3283ZM84.5485 37.1169C84.3334 36.973 84.1899 36.7572 83.9748 36.6134C64.9695 48.4823 46.036 60.3512 26.5287 72.5798C36.354 76.8958 45.3905 80.7801 54.6421 84.8084C64.6826 68.7673 74.6514 52.9421 84.5485 37.1169Z" fill="white"/>
<path d="M213.83 73.5407C208.389 75.9126 203.602 77.9251 198.741 80.0814C189.601 84.0346 180.389 88.0596 171.248 92.0127C169.725 92.6596 168.564 93.3065 167.331 91.3659C151.517 66.3532 135.631 41.3405 119.745 16.3278C119.745 16.2559 119.817 16.1122 120.035 15.6809C151.155 34.7998 182.275 53.9906 213.83 73.5407ZM199.539 72.5345C179.663 60.3156 160.512 48.4562 141.289 36.5967C141.144 36.7404 140.926 36.9561 140.781 37.0998C150.865 52.9843 160.948 68.8688 171.103 84.8252C180.534 80.7283 189.674 76.7751 199.539 72.5345Z" fill="white"/>
</svg>
